<svg width="100" height="100" viewBox="0 0 100 100" xmlns="http://www.w3.org/2000/svg">
  <defs>
    <pattern id="coffee-beans" x="0" y="0" width="50" height="50" patternUnits="userSpaceOnUse">
      <!-- Bean 1 -->
      <path d="M15,10 C18,5 25,5 28,10 C31,15 31,22 28,27 C25,32 18,32 15,27 C12,22 12,15 15,10 Z" 
        fill="#8B4513" fill-opacity="0.1" transform="rotate(30, 20, 20)"/>
      
      <!-- Bean 2 -->
      <path d="M35,30 C38,25 45,25 48,30 C51,35 51,42 48,47 C45,52 38,52 35,47 C32,42 32,35 35,30 Z" 
        fill="#5D342F" fill-opacity="0.1" transform="rotate(-15, 40, 40)"/>
    </pattern>
  </defs>
  
  <rect width="100%" height="100%" fill="url(#coffee-beans)" />
</svg> 